<svg xmlns="http://www.w3.org/2000/svg" viewBox="0 0 137.42 137.42"><defs><style>.cls-1{fill:#fff;}</style></defs><title>O</title><g id="Layer_2" data-name="Layer 2"><g id="Layer_1-2" data-name="Layer 1"><path class="cls-1" d="M34.21,128.58a65.74,65.74,0,0,1-25-24.52Q0,88.39,0,68.62T9.22,33.17a65.08,65.08,0,0,1,25-24.43A70.28,70.28,0,0,1,68.81,0a70.07,70.07,0,0,1,34.68,8.74A64.61,64.61,0,0,1,128.3,33.17q9.12,15.67,9.12,35.45t-9.12,35.44a65.08,65.08,0,0,1-24.9,24.52,69.5,69.5,0,0,1-34.59,8.84A69.52,69.52,0,0,1,34.21,128.58ZM91.33,93.52q8.27-9.31,8.27-24.9,0-16-8.27-25.19T68.81,34.21q-14.46,0-22.62,9.22T38,68.62q0,15.78,8.18,25t22.62,9.22Q83.06,102.83,91.33,93.52Z"/></g></g></svg>